<svg width="218" height="223" viewBox="0 0 218 223" fill="none" xmlns="http://www.w3.org/2000/svg">
<path opacity="0.5" d="M35.381 37.4314C26.5383 37.4314 19.377 44.6012 19.377 53.4355V59.8371C19.377 68.6798 26.5468 75.8412 35.381 75.8412H182.619C191.453 75.8412 198.623 68.6713 198.623 59.8371V53.4355C198.623 44.5927 191.453 37.4314 182.619 37.4314H35.381Z" fill="#8784EC"/>
<path d="M180.461 161.304C180.078 167.824 177.219 173.956 172.467 178.437C167.715 182.917 161.431 185.412 154.901 185.413H63.0834C56.555 185.409 50.2733 182.91 45.5249 178.43C40.7764 173.949 37.9204 167.821 37.5374 161.304L32.9263 82.9846H185.079L180.461 161.304ZM86.2439 108.594C78.702 108.594 72.5859 114.704 72.5847 122.245C72.5847 129.787 78.7012 135.904 86.2439 135.904C93.7859 135.904 99.9028 129.787 99.9028 122.245C99.9014 114.704 93.7852 108.594 86.2439 108.594ZM131.769 108.594C124.228 108.594 118.111 114.704 118.11 122.245C118.11 129.787 124.227 135.904 131.769 135.904C139.31 135.903 145.421 129.787 145.421 122.245C145.42 114.705 139.309 108.595 131.769 108.594Z" fill="#8784EC"/>
</svg>
